<svg width="512" height="512" viewBox="0 0 512 512" fill="none" xmlns="http://www.w3.org/2000/svg">
<g clip-path="url(#clip0_60_24)">
<path d="M174.511 404.22L144.659 475.526L183.949 492L214.048 420.09C227.465 423.55 241.513 425.39 256 425.39C348.629 425.39 424 349.965 424 257.271H381.417C381.417 326.462 325.17 382.776 256 382.776C186.83 382.776 130.583 326.49 130.583 257.271H88C88 320.394 122.955 375.473 174.511 404.22Z" fill="black"/>
<path d="M192.317 19H319.655C326.048 19 330.246 25.6446 327.53 31.438L299.735 90.5252C298.309 93.5729 295.236 95.5224 291.861 95.5224H220.139C216.764 95.5224 213.691 93.5729 212.265 90.5252L184.47 31.438C181.754 25.6446 185.952 19 192.345 19L192.317 19Z" fill="#FFC88C"/>
<path d="M222.142 49.1202L239.153 95.5224" stroke="#DAA16D" stroke-width="5" stroke-miterlimit="10" stroke-linecap="round"/>
<path d="M291.01 46.704L273.999 93.1062" stroke="#DAA16D" stroke-width="5" stroke-miterlimit="10" stroke-linecap="round"/>
<path d="M316.308 108.784C316.308 107.356 195.61 107.356 195.61 108.784V90.3605C195.61 68.6695 316.308 68.6695 316.308 90.3605V108.784Z" fill="#784600"/>
<path d="M88 257.271C88 164.412 163.206 89.1524 256 89.1524C348.794 89.1524 424 164.412 424 257.271H88Z" fill="#FFC88C"/>
<path d="M381.39 257.271C381.39 326.572 325.252 382.776 255.973 382.776C186.693 382.776 130.556 326.6 130.556 257.271H381.39Z" fill="white"/>
<path d="M294.248 227.81C295.236 231.626 293.26 235.58 289.611 237.063C283.822 239.451 276.386 241.209 268.073 241.209C251.144 241.209 236.355 234.399 227.053 222.483C221.895 216.497 218.383 208.81 216.819 200.106H210.838C208.012 200.106 205.707 197.799 205.707 194.971C205.707 192.143 208.012 189.837 210.838 189.837H215.392C215.392 189.837 215.447 189.782 215.502 189.727C215.255 186.899 215.502 183.989 215.694 181.243H210.838C208.012 181.243 205.707 178.936 205.707 176.108C205.707 173.28 208.012 170.974 210.838 170.974H217.423C219.563 161.584 224.063 153.237 230.401 146.757C239.894 136.845 252.982 130.832 268.594 130.832C275.782 130.832 282.285 131.985 287.635 133.605C291.751 134.841 294.138 139.151 292.958 143.297L292.903 143.517C291.724 147.69 287.416 150.217 283.245 149.008C279.294 147.855 274.712 147.086 269.911 147.086C260.61 147.086 252.433 150.381 246.561 156.806C242.912 160.403 240.47 165.592 239.071 170.974H282.477C285.303 170.974 287.608 173.28 287.608 176.108C287.608 178.936 285.303 181.243 282.477 181.243H236.684C236.437 183.082 236.382 185.114 236.382 187.064V189.837H282.477C285.303 189.837 287.608 192.143 287.608 194.971C287.608 197.799 285.303 200.106 282.477 200.106H238.55C239.839 206.311 242.473 211.39 246.068 215.015C252.268 221.33 260.939 224.378 270.597 224.378C275.618 224.378 280.419 223.444 284.37 222.209C288.651 220.891 293.178 223.444 294.275 227.81H294.248Z" fill="#784600"/>
</g>
<defs>
<clipPath id="clip0_60_24">
<rect width="336" height="473" fill="white" transform="translate(88 19)"/>
</clipPath>
</defs>
</svg>
