<?xml version="1.0" standalone="no"?>
<!DOCTYPE svg PUBLIC "-//W3C//DTD SVG 20010904//EN"
 "http://www.w3.org/TR/2001/REC-SVG-20010904/DTD/svg10.dtd">
<svg version="1.0" xmlns="http://www.w3.org/2000/svg"
 width="512.000000pt" height="512.000000pt" viewBox="0 0 512.000000 512.000000"
 preserveAspectRatio="xMidYMid meet">
<metadata>
Created by potrace 1.14, written by Peter Selinger 2001-2017
</metadata>
<g transform="translate(0.000000,512.000000) scale(0.100000,-0.100000)"
fill="#000000" stroke="none">
<path d="M3015 4483 c-182 -25 -373 -142 -465 -285 l-35 -55 -50 38 c-117 88
-247 132 -395 133 -122 1 -153 -7 -145 -37 21 -77 84 -177 160 -253 87 -88
157 -132 262 -168 l68 -23 -70 -13 c-517 -95 -930 -500 -1030 -1012 -25 -129
-31 -344 -11 -455 45 -262 168 -500 351 -686 68 -70 186 -164 253 -202 17 -11
32 -22 32 -26 0 -3 -50 -124 -110 -269 -61 -145 -107 -267 -103 -271 4 -4 72
-34 151 -67 123 -52 144 -58 150 -44 3 9 54 131 113 272 88 208 111 255 126
253 10 -1 64 -9 119 -18 409 -62 822 83 1112 389 167 177 276 384 328 626 23
107 23 334 -1 471 -67 388 -312 725 -665 913 -105 56 -268 111 -378 127 l-83
13 73 26 c109 38 164 74 255 165 95 96 152 201 177 327 26 125 26 124 -45 132
-64 6 -92 6 -144 -1z m502 -1996 c-31 -404 -325 -749 -723 -849 -114 -29 -331
-31 -438 -5 -406 101 -707 447 -733 845 l-6 92 953 0 953 0 -6 -83z"/>
</g>
</svg>
