<svg width="683" height="683" viewBox="0 0 683 683" fill="none" xmlns="http://www.w3.org/2000/svg">
<g clip-path="url(#clip0_61_25)">
<path d="M241.821 523.549L205.305 610.834L253.366 631L290.184 542.975C306.596 547.21 323.779 549.462 341.5 549.462C454.805 549.462 547 457.135 547 343.668H494.912C494.912 428.365 426.11 497.299 341.5 497.299C256.89 497.299 188.088 428.399 188.088 343.668H136C136 420.937 178.758 488.359 241.821 523.549Z" fill="black"/>
<path d="M263.603 52H419.364C427.184 52 432.319 60.1336 428.996 67.2253L394.998 139.554C393.253 143.285 389.494 145.671 385.366 145.671H297.634C293.506 145.671 289.747 143.285 288.002 139.554L254.004 67.2253C250.681 60.1336 255.816 52 263.636 52H263.603Z" fill="black"/>
<path d="M300.085 88.8702L320.893 145.671" stroke="black" stroke-width="5" stroke-miterlimit="10" stroke-linecap="round"/>
<path d="M384.325 85.9125L363.517 142.713" stroke="black" stroke-width="5" stroke-miterlimit="10" stroke-linecap="round"/>
<path d="M415.269 161.905C415.269 160.157 267.63 160.157 267.63 161.905V139.352C267.63 112.801 415.269 112.801 415.269 139.352V161.905Z" fill="black"/>
<path d="M136 343.668C136 229.999 227.993 137.874 341.5 137.874C455.007 137.874 547 229.999 547 343.668H136Z" fill="black"/>
<path d="M388.285 307.604C389.494 312.276 387.077 317.116 382.613 318.931C375.532 321.855 366.437 324.006 356.267 324.006C335.56 324.006 317.47 315.671 306.092 301.084C299.782 293.757 295.487 284.346 293.573 273.692H286.257C282.8 273.692 279.981 270.868 279.981 267.407C279.981 263.945 282.8 261.122 286.257 261.122H291.828C291.828 261.122 291.895 261.054 291.963 260.987C291.66 257.525 291.963 253.963 292.197 250.602H286.257C282.8 250.602 279.981 247.778 279.981 244.317C279.981 240.855 282.8 238.032 286.257 238.032H294.312C296.93 226.537 302.434 216.319 310.187 208.387C321.799 196.254 337.808 188.894 356.905 188.894C365.698 188.894 373.652 190.305 380.197 192.288C385.231 193.801 388.151 199.077 386.708 204.153L386.641 204.421C385.198 209.53 379.928 212.622 374.827 211.143C369.994 209.732 364.389 208.791 358.516 208.791C347.138 208.791 337.137 212.824 329.955 220.689C325.491 225.092 322.504 231.444 320.792 238.032H373.887C377.344 238.032 380.163 240.855 380.163 244.317C380.163 247.778 377.344 250.602 373.887 250.602H317.872C317.57 252.854 317.503 255.341 317.503 257.727V261.122H373.887C377.344 261.122 380.163 263.945 380.163 267.407C380.163 270.868 377.344 273.692 373.887 273.692H320.155C321.732 281.288 324.954 287.505 329.351 291.942C336.936 299.672 347.541 303.403 359.355 303.403C365.497 303.403 371.37 302.26 376.203 300.748C381.439 299.135 386.976 302.26 388.319 307.604H388.285Z" fill="black"/>
</g>
<defs>
<clipPath id="clip0_61_25">
<rect width="411" height="579" fill="white" transform="translate(136 52)"/>
</clipPath>
</defs>
</svg>
